<svg xmlns="http://www.w3.org/2000/svg" style="display:none" aria-hidden="true"><!--
  One sprite for the whole site. Lucide-style strokes, hand drawn:
  24px grid, stroke-width 2, round caps and joins, currentColor.
  Reference with <svg><use href="assets/icons.svg#name"/></svg>.
-->
<symbol id="chevron-right" viewBox="0 0 24 24" fill="none" stroke="currentColor" stroke-width="2" stroke-linecap="round" stroke-linejoin="round"><path d="m9 18 6-6-6-6"/></symbol>
<symbol id="chevron-left" viewBox="0 0 24 24" fill="none" stroke="currentColor" stroke-width="2" stroke-linecap="round" stroke-linejoin="round"><path d="m15 18-6-6 6-6"/></symbol>
<symbol id="chevron-down" viewBox="0 0 24 24" fill="none" stroke="currentColor" stroke-width="2" stroke-linecap="round" stroke-linejoin="round"><path d="m6 9 6 6 6-6"/></symbol>
<symbol id="plus" viewBox="0 0 24 24" fill="none" stroke="currentColor" stroke-width="2" stroke-linecap="round" stroke-linejoin="round"><path d="M5 12h14"/><path d="M12 5v14"/></symbol>
<symbol id="search" viewBox="0 0 24 24" fill="none" stroke="currentColor" stroke-width="2" stroke-linecap="round" stroke-linejoin="round"><circle cx="11" cy="11" r="8"/><path d="m21 21-4.3-4.3"/></symbol>
<symbol id="ellipsis" viewBox="0 0 24 24" fill="none" stroke="currentColor" stroke-width="2" stroke-linecap="round" stroke-linejoin="round"><circle cx="12" cy="12" r="1"/><circle cx="19" cy="12" r="1"/><circle cx="5" cy="12" r="1"/></symbol>
<symbol id="x" viewBox="0 0 24 24" fill="none" stroke="currentColor" stroke-width="2" stroke-linecap="round" stroke-linejoin="round"><path d="M18 6 6 18"/><path d="m6 6 12 12"/></symbol>
<symbol id="home" viewBox="0 0 24 24" fill="none" stroke="currentColor" stroke-width="2" stroke-linecap="round" stroke-linejoin="round"><path d="m3 10 9-7 9 7v10a2 2 0 0 1-2 2H5a2 2 0 0 1-2-2z"/><path d="M9 22v-8h6v8"/></symbol>
<symbol id="map" viewBox="0 0 24 24" fill="none" stroke="currentColor" stroke-width="2" stroke-linecap="round" stroke-linejoin="round"><path d="m9 4-6 2v14l6-2 6 2 6-2V4l-6 2z"/><path d="M9 4v14"/><path d="M15 6v14"/></symbol>
<symbol id="book-open" viewBox="0 0 24 24" fill="none" stroke="currentColor" stroke-width="2" stroke-linecap="round" stroke-linejoin="round"><path d="M4 5.5A1.5 1.5 0 0 1 5.5 4H11v16H5.5A1.5 1.5 0 0 1 4 18.5z"/><path d="M20 5.5A1.5 1.5 0 0 0 18.5 4H13v16h5.5a1.5 1.5 0 0 0 1.5-1.5z"/></symbol>
<symbol id="book" viewBox="0 0 24 24" fill="none" stroke="currentColor" stroke-width="2" stroke-linecap="round" stroke-linejoin="round"><path d="M4 19.5A2.5 2.5 0 0 1 6.5 17H20"/><path d="M6.5 2H20v20H6.5A2.5 2.5 0 0 1 4 19.5v-15A2.5 2.5 0 0 1 6.5 2z"/></symbol>
<symbol id="notebook" viewBox="0 0 24 24" fill="none" stroke="currentColor" stroke-width="2" stroke-linecap="round" stroke-linejoin="round"><path d="M6 3h11a2 2 0 0 1 2 2v14a2 2 0 0 1-2 2H6a1 1 0 0 1-1-1V4a1 1 0 0 1 1-1z"/><path d="M9 3v8l2.5-1.8L14 11V3"/></symbol>
<symbol id="user" viewBox="0 0 24 24" fill="none" stroke="currentColor" stroke-width="2" stroke-linecap="round" stroke-linejoin="round"><path d="M19 21v-2a4 4 0 0 0-4-4H9a4 4 0 0 0-4 4v2"/><circle cx="12" cy="7" r="4"/></symbol>
<symbol id="image" viewBox="0 0 24 24" fill="none" stroke="currentColor" stroke-width="2" stroke-linecap="round" stroke-linejoin="round"><rect x="3" y="3" width="18" height="18" rx="2"/><circle cx="9" cy="9" r="2"/><path d="m21 15-3.1-3.1a2 2 0 0 0-2.8 0L6 21"/></symbol>
<symbol id="camera" viewBox="0 0 24 24" fill="none" stroke="currentColor" stroke-width="2" stroke-linecap="round" stroke-linejoin="round"><path d="M4 8h3l1.5-2h7L17 8h3a1 1 0 0 1 1 1v10a1 1 0 0 1-1 1H4a1 1 0 0 1-1-1V9a1 1 0 0 1 1-1z"/><circle cx="12" cy="13" r="3.2"/></symbol>
<symbol id="lock" viewBox="0 0 24 24" fill="none" stroke="currentColor" stroke-width="2" stroke-linecap="round" stroke-linejoin="round"><rect x="3" y="11" width="18" height="11" rx="2"/><path d="M7 11V7a5 5 0 0 1 10 0v4"/></symbol>
<symbol id="globe" viewBox="0 0 24 24" fill="none" stroke="currentColor" stroke-width="2" stroke-linecap="round" stroke-linejoin="round"><circle cx="12" cy="12" r="10"/><path d="M12 2a14.5 14.5 0 0 0 0 20 14.5 14.5 0 0 0 0-20"/><path d="M2 12h20"/></symbol>
<symbol id="shield" viewBox="0 0 24 24" fill="none" stroke="currentColor" stroke-width="2" stroke-linecap="round" stroke-linejoin="round"><path d="M20 13c0 5-3.5 7.5-7.7 9a.6.6 0 0 1-.6 0C7.5 20.5 4 18 4 13V6a1 1 0 0 1 .7-1c2-.6 4.7-1.7 6.7-2.9a1.2 1.2 0 0 1 1.2 0c2 1.2 4.7 2.3 6.7 2.9a1 1 0 0 1 .7 1z"/></symbol>
<symbol id="download" viewBox="0 0 24 24" fill="none" stroke="currentColor" stroke-width="2" stroke-linecap="round" stroke-linejoin="round"><path d="M21 15v4a2 2 0 0 1-2 2H5a2 2 0 0 1-2-2v-4"/><path d="m7 10 5 5 5-5"/><path d="M12 15V3"/></symbol>
<symbol id="upload" viewBox="0 0 24 24" fill="none" stroke="currentColor" stroke-width="2" stroke-linecap="round" stroke-linejoin="round"><path d="M21 15v4a2 2 0 0 1-2 2H5a2 2 0 0 1-2-2v-4"/><path d="m7 8 5-5 5 5"/><path d="M12 3v12"/></symbol>
<symbol id="share" viewBox="0 0 24 24" fill="none" stroke="currentColor" stroke-width="2" stroke-linecap="round" stroke-linejoin="round"><path d="M12 3v13"/><path d="M8 7l4-4 4 4"/><path d="M6 12H5a1 1 0 0 0-1 1v7a1 1 0 0 0 1 1h14a1 1 0 0 0 1-1v-7a1 1 0 0 0-1-1h-1"/></symbol>
<symbol id="chart" viewBox="0 0 24 24" fill="none" stroke="currentColor" stroke-width="2" stroke-linecap="round" stroke-linejoin="round"><path d="M3 3v16a2 2 0 0 0 2 2h16"/><path d="M7 16v-5"/><path d="M12 16V8"/><path d="M17 16v-3"/></symbol>
<symbol id="link-out" viewBox="0 0 24 24" fill="none" stroke="currentColor" stroke-width="2" stroke-linecap="round" stroke-linejoin="round"><path d="M15 3h6v6"/><path d="M10 14 21 3"/><path d="M18 13v6a2 2 0 0 1-2 2H5a2 2 0 0 1-2-2V8a2 2 0 0 1 2-2h6"/></symbol>
<symbol id="alert" viewBox="0 0 24 24" fill="none" stroke="currentColor" stroke-width="2" stroke-linecap="round" stroke-linejoin="round"><path d="M12 3 2.5 19a1.5 1.5 0 0 0 1.3 2.2h16.4a1.5 1.5 0 0 0 1.3-2.2z"/><path d="M12 9v4"/><path d="M12 17h.01"/></symbol>
<symbol id="tent" viewBox="0 0 24 24" fill="none" stroke="currentColor" stroke-width="2" stroke-linecap="round" stroke-linejoin="round"><path d="M3.5 21 12 4l8.5 17"/><path d="m12 13 4.5 8"/><path d="M2 21h20"/></symbol>
<symbol id="fish" viewBox="0 0 24 24" fill="none" stroke="currentColor" stroke-width="2" stroke-linecap="round" stroke-linejoin="round"><path d="M18 12c-4 4-8 4-14 0 6-4 10-4 14 0Z"/><path d="m18 12 3-3"/><path d="m18 12 3 3"/><circle cx="8.5" cy="11.5" r=".5" fill="currentColor"/></symbol>
<symbol id="bird" viewBox="0 0 24 24" fill="none" stroke="currentColor" stroke-width="2" stroke-linecap="round" stroke-linejoin="round"><path d="M16 7h.01"/><path d="M3.4 18H12a8 8 0 0 0 8-8V7a4 4 0 0 0-7.28-2.3L2 20"/><path d="m20 7 2 .5-2 .5"/><path d="M10 18v3"/><path d="M14 17.75V21"/><path d="M7 18a6 6 0 0 0 3.84-10.61"/></symbol>
<symbol id="layers" viewBox="0 0 24 24" fill="none" stroke="currentColor" stroke-width="2" stroke-linecap="round" stroke-linejoin="round"><path d="m12 2 9 5-9 5-9-5z"/><path d="m3 12 9 5 9-5"/><path d="m3 17 9 5 9-5"/></symbol>
<symbol id="leaf" viewBox="0 0 24 24" fill="none" stroke="currentColor" stroke-width="2" stroke-linecap="round" stroke-linejoin="round"><path d="M11 20A7 7 0 0 1 9.8 6.1C15.5 5 17 4.5 19 2c1 2 2 4.2 2 8 0 5.5-4.8 10-10 10Z"/><path d="M2 21c0-3 1.9-5.4 5.1-6C9.5 14.5 12 13 13 12"/></symbol>
<symbol id="paw" viewBox="0 0 24 24" fill="none" stroke="currentColor" stroke-width="2" stroke-linecap="round" stroke-linejoin="round"><circle cx="6" cy="9" r="1.6"/><circle cx="18" cy="9" r="1.6"/><circle cx="9.5" cy="5.5" r="1.6"/><circle cx="14.5" cy="5.5" r="1.6"/><path d="M12 11c-2.6 0-5 2.2-5 4.6 0 1.5 1.1 2.4 2.4 2.4 1 0 1.8-.4 2.6-.4s1.6.4 2.6.4c1.3 0 2.4-.9 2.4-2.4 0-2.4-2.4-4.6-5-4.6z"/></symbol>
<symbol id="star" viewBox="0 0 24 24" fill="none" stroke="currentColor" stroke-width="2" stroke-linecap="round" stroke-linejoin="round"><path d="m12 3 2.8 5.7 6.2.9-4.5 4.4 1.1 6.2L12 17.3 6.4 20.2l1.1-6.2L3 9.6l6.2-.9z"/></symbol>
<symbol id="pin" viewBox="0 0 24 24" fill="none" stroke="currentColor" stroke-width="2" stroke-linecap="round" stroke-linejoin="round"><path d="M12 21s7-6.3 7-11a7 7 0 1 0-14 0c0 4.7 7 11 7 11Z"/><circle cx="12" cy="10" r="2.4"/></symbol>
<symbol id="compass" viewBox="0 0 24 24" fill="none" stroke="currentColor" stroke-width="2" stroke-linecap="round" stroke-linejoin="round"><circle cx="12" cy="12" r="10"/><path d="m16.2 7.8-2.1 6.3-6.3 2.1 2.1-6.3z"/></symbol>
<symbol id="mail" viewBox="0 0 24 24" fill="none" stroke="currentColor" stroke-width="2" stroke-linecap="round" stroke-linejoin="round"><rect x="2" y="4" width="20" height="16" rx="2"/><path d="m22 7-10 7L2 7"/></symbol>
<symbol id="scissors" viewBox="0 0 24 24" fill="none" stroke="currentColor" stroke-width="2" stroke-linecap="round" stroke-linejoin="round"><circle cx="6" cy="6" r="3"/><circle cx="6" cy="18" r="3"/><path d="M8.1 8.1 20 20"/><path d="M14.5 14.5 20 9"/><path d="M8.1 15.9 12 12"/></symbol>
<symbol id="bag" viewBox="0 0 24 24" fill="none" stroke="currentColor" stroke-width="2" stroke-linecap="round" stroke-linejoin="round"><path d="M6 2 3 6v14a2 2 0 0 0 2 2h14a2 2 0 0 0 2-2V6l-3-4z"/><path d="M3 6h18"/><path d="M16 10a4 4 0 0 1-8 0"/></symbol>
<symbol id="sun-moon" viewBox="0 0 24 24" fill="none" stroke="currentColor" stroke-width="2" stroke-linecap="round" stroke-linejoin="round"><path d="M12 8a4 4 0 1 0 4 4 6 6 0 0 1-4-4z"/><path d="M12 2v2"/><path d="M12 20v2"/><path d="m4.9 4.9 1.4 1.4"/><path d="m17.7 17.7 1.4 1.4"/><path d="M2 12h2"/><path d="M20 12h2"/><path d="m6.3 17.7-1.4 1.4"/><path d="m19.1 4.9-1.4 1.4"/></symbol>
<symbol id="trash" viewBox="0 0 24 24" fill="none" stroke="currentColor" stroke-width="2" stroke-linecap="round" stroke-linejoin="round"><path d="M3 6h18"/><path d="M19 6v14a2 2 0 0 1-2 2H7a2 2 0 0 1-2-2V6"/><path d="M8 6V4a2 2 0 0 1 2-2h4a2 2 0 0 1 2 2v2"/></symbol>
<symbol id="info" viewBox="0 0 24 24" fill="none" stroke="currentColor" stroke-width="2" stroke-linecap="round" stroke-linejoin="round"><circle cx="12" cy="12" r="10"/><path d="M12 16v-4"/><path d="M12 8h.01"/></symbol>
<symbol id="grip" viewBox="0 0 24 24" fill="none" stroke="currentColor" stroke-width="2" stroke-linecap="round" stroke-linejoin="round"><path d="M4 9h16M4 15h16"/></symbol><symbol id="check" viewBox="0 0 24 24" fill="none" stroke="currentColor" stroke-width="2" stroke-linecap="round" stroke-linejoin="round"><path d="M4 12.5 9.5 18 20 6.5"/></symbol>
</svg>
